<svg width="400" height="400" viewBox="0 0 400 400" fill="none" xmlns="http://www.w3.org/2000/svg">
<path d="M116.652 133H283.348C299.074 133 307 140.424 307 155.524V261.476C307 276.45 299.074 284 283.348 284H116.652C100.926 284 93 276.45 93 261.476V155.524C93 140.424 100.926 133 116.652 133ZM199.937 241.217L284.732 171.631C287.751 169.114 290.142 163.326 286.367 158.167C282.719 153.007 276.051 152.882 271.648 156.027L199.937 204.599L128.352 156.027C123.949 152.882 117.281 153.007 113.633 158.167C109.858 163.326 112.249 169.114 115.268 171.631L199.937 241.217Z" fill="#EB5454"/>
</svg>
