<svg width="400" height="400" viewBox="0 0 400 400" fill="none" xmlns="http://www.w3.org/2000/svg">
<path d="M309 132.114C300.983 135.682 292.371 138.093 283.317 139.183C292.659 133.568 299.648 124.732 302.98 114.322C294.203 119.558 284.598 123.244 274.58 125.219C267.844 117.995 258.922 113.207 249.199 111.598C239.475 109.989 229.495 111.649 220.808 116.321C212.12 120.993 205.211 128.415 201.154 137.434C197.096 146.454 196.117 156.567 198.368 166.203C180.584 165.306 163.186 160.663 147.304 152.576C131.422 144.489 117.411 133.138 106.179 119.26C102.339 125.913 100.131 133.628 100.131 141.844C100.126 149.24 101.94 156.523 105.41 163.047C108.88 169.571 113.9 175.133 120.024 179.241C112.922 179.014 105.976 177.086 99.7657 173.619V174.197C99.765 184.571 103.338 194.625 109.877 202.654C116.417 210.683 125.521 216.193 135.645 218.247C129.056 220.038 122.149 220.302 115.444 219.019C118.3 227.945 123.864 235.75 131.356 241.342C138.849 246.934 147.895 250.033 157.228 250.205C141.384 262.697 121.818 269.473 101.676 269.443C98.1084 269.444 94.5435 269.235 91 268.817C111.445 282.02 135.245 289.027 159.551 289C241.831 289 286.812 220.552 286.812 161.188C286.812 159.26 286.764 157.312 286.678 155.383C295.427 149.028 302.979 141.158 308.981 132.143L309 132.114V132.114Z" fill="#EB5454"/>
</svg>
