<svg width="56" height="56" viewBox="0 0 56 56" fill="none" xmlns="http://www.w3.org/2000/svg">
<path d="M0 7C0 3.13401 3.13401 0 7 0H49C52.866 0 56 3.13401 56 7V49C56 52.866 52.866 56 49 56H7C3.13401 56 0 52.866 0 49V7Z" fill="#0D1117"/>
<path d="M41.0679 45H9.24328C6.88826 45 5 42.975 5 40.5V13.5C5 11.0025 6.88826 9 9.24328 9H21.9731L26.2164 13.5H41.0679C43.3953 13.5 45.3112 15.5317 45.3112 18H9.24328V40.5L13.7836 22.5H50L45.1627 41.625C44.6747 43.5825 43.0198 45 41.0679 45Z" fill="#42A5F5"/>
<path d="M33.9577 28L33.3038 31.34H46.9759L46.5332 33.5H32.8712L32.2072 36.83H45.8793L45.1147 40.64L39.6016 42.45L34.8229 40.64L35.1549 39H31.7948L31 43L38.8974 46L48.002 43L49.2093 36.97L49.4507 35.76L51 28H33.9577Z" fill="#BBDEFB"/>
</svg>
