<svg width="56" height="56" viewBox="0 0 56 56" fill="none" xmlns="http://www.w3.org/2000/svg">
<path d="M0 7C0 3.13401 3.13401 0 7 0H49C52.866 0 56 3.13401 56 7V49C56 52.866 52.866 56 49 56H7C3.13401 56 0 52.866 0 49V7Z" fill="#0D1117"/>
<path d="M41.0679 45H9.24328C6.88826 45 5 42.975 5 40.5V13.5C5 11.0025 6.88826 9 9.24328 9H21.9731L26.2164 13.5H41.0679C43.3953 13.5 45.3112 15.5317 45.3112 18H9.24328V40.5L13.7836 22.5H50L45.1627 41.625C44.6747 43.5825 43.0198 45 41.0679 45Z" fill="#FF7043"/>
<path fill-rule="evenodd" clip-rule="evenodd" d="M30.2791 43.5012L28 21H53.0446L50.7628 43.4976L40.5074 46L30.2791 43.5012ZM39.5079 37.6798L31.3923 33.3857V31.8298L39.5079 27.5345V29.9429L34.3301 32.6071L39.5079 35.2726V37.6798ZM41.5368 37.6774V35.2714L46.751 32.6071L41.5368 29.944V27.5369L49.6523 31.8119V33.4024L41.5368 37.6774Z" fill="#FFCCBC"/>
</svg>
