<svg width="56" height="56" viewBox="0 0 56 56" fill="none" xmlns="http://www.w3.org/2000/svg">
<path d="M0 7C0 3.13401 3.13401 0 7 0H49C52.866 0 56 3.13401 56 7V49C56 52.866 52.866 56 49 56H7C3.13401 56 0 52.866 0 49V7Z" fill="#0D1117"/>
<path d="M41.0679 45H9.24328C6.88826 45 5 42.975 5 40.5V13.5C5 11.0025 6.88826 9 9.24328 9H21.9731L26.2164 13.5H41.0679C43.3953 13.5 45.3112 15.5317 45.3112 18H9.24328V40.5L13.7836 22.5H50L45.1627 41.625C44.6747 43.5825 43.0198 45 41.0679 45Z" fill="#8DEBF1"/>
<path d="M50.9222 29.0268L50.8202 28.7965L50.6485 28.9833C50.2416 29.4483 49.725 29.8044 49.1455 30.019L48.9842 30.0813L49.051 30.2373C49.5481 31.4278 49.803 32.7054 49.801 33.9955C49.801 39.4015 45.406 43.8003 39.9963 43.8003C34.5865 43.8003 30.1953 39.4053 30.1953 33.9993C30.1953 28.5933 34.5985 24.1945 40 24.1945C41.4692 24.1945 42.883 24.5118 44.1993 25.1403L44.3552 25.2145L44.422 25.0615C44.664 24.4931 45.0436 23.9938 45.5267 23.6088L45.7225 23.449L45.4998 23.332C43.8 22.4529 41.9136 21.996 40 22C33.3828 22 28 27.3828 28 34C28 40.621 33.3828 46 40 46C46.621 46 52 40.621 52 34C52 32.2698 51.6407 30.598 50.9222 29.0268ZM40 28.531C38.55 28.5324 37.1597 29.1091 36.1344 30.1344C35.109 31.1597 34.5324 32.55 34.531 34C34.5324 35.4501 35.109 36.8403 36.1344 37.8656C37.1597 38.891 38.55 39.4676 40 39.469C41.45 39.4676 42.8403 38.891 43.8656 37.8656C44.891 36.8403 45.4676 35.4501 45.469 34C45.4676 32.55 44.891 31.1597 43.8656 30.1344C42.8403 29.1091 41.45 28.5324 40 28.531ZM50.344 26.5233C50.3442 26.8506 50.2799 27.1749 50.1547 27.4774C50.0295 27.7799 49.846 28.0547 49.6145 28.2863C49.3831 28.5178 49.1082 28.7014 48.8058 28.8267C48.5033 28.9519 48.1791 29.0164 47.8517 29.0163C47.524 29.0168 47.1995 28.9526 46.8966 28.8276C46.5937 28.7025 46.3184 28.519 46.0865 28.2874C45.8546 28.0559 45.6706 27.7809 45.5451 27.4782C45.4196 27.1755 45.355 26.851 45.355 26.5233C45.355 23.1993 50.344 23.1993 50.344 26.5233Z" fill="white" fill-opacity="0.9"/>
</svg>
