<svg width="60" height="60" viewBox="0 0 60 60" fill="none" xmlns="http://www.w3.org/2000/svg">
<path d="M36.8644 18.8678C36.5127 19.6083 36.3028 20.4082 36.2456 21.226H18.5418C17.8539 21.226 17.194 21.4993 16.7076 21.9858C16.2211 22.4723 15.9478 23.1321 15.9478 23.8201V24.3785L29.6256 32.5852L38.9133 27.0131C39.6968 27.5922 40.5993 27.9898 41.5555 28.1772L30.2321 34.9717C30.0699 35.0689 29.8866 35.1257 29.6978 35.1372C29.509 35.1487 29.3202 35.1146 29.1473 35.0378L29.019 34.9717L15.9478 27.1282V39.3845C15.9478 40.2966 16.6873 41.0352 17.5985 41.0352H41.6526C42.0904 41.0352 42.5103 40.8613 42.8199 40.5518C43.1295 40.2422 43.3034 39.8223 43.3034 39.3845V28.2847C44.1213 28.2272 44.9211 28.017 45.6616 27.665V39.3845C45.6616 40.4477 45.2393 41.4674 44.4874 42.2193C43.7356 42.9711 42.7159 43.3935 41.6526 43.3935H17.5985C16.5353 43.3935 15.5156 42.9711 14.7638 42.2193C14.0119 41.4674 13.5895 40.4477 13.5895 39.3845L13.5886 25.1275C13.5851 25.075 13.5851 25.0224 13.5886 24.97L13.5895 23.8201C13.5895 21.0845 15.8063 18.8678 18.5418 18.8678H36.8644ZM42.8317 16.9812C44.0826 16.9812 45.2823 17.4781 46.1668 18.3626C47.0513 19.2471 47.5482 20.4468 47.5482 21.6977C47.5482 22.9486 47.0513 24.1482 46.1668 25.0327C45.2823 25.9172 44.0826 26.4141 42.8317 26.4141C41.5809 26.4141 40.3812 25.9172 39.4967 25.0327C38.6122 24.1482 38.1153 22.9486 38.1153 21.6977C38.1153 20.4468 38.6122 19.2471 39.4967 18.3626C40.3812 17.4781 41.5809 16.9812 42.8317 16.9812Z" fill="white"/>
<path d="M60 30C60 13.4315 46.5685 0 30 0C13.4315 0 0 13.4315 0 30C0 46.5685 13.4315 60 30 60C46.5685 60 60 46.5685 60 30Z" fill="#0D1117"/>
<path d="M19.4448 14.8592C19.6266 14.849 19.8089 14.8502 19.9906 14.8628L19.4448 14.8592ZM19.4448 14.8592C18.8593 14.8211 18.272 14.9015 17.719 15.0955C17.163 15.2905 16.6533 15.5962 16.2216 15.9937C15.7899 16.3912 15.4454 16.8721 15.2094 17.4067C14.9735 17.9412 14.8512 18.5178 14.8501 19.1009M19.4448 14.8592L19.9906 14.8628C20.554 14.9018 21.1041 15.0499 21.6097 15.2988C22.1152 15.5478 22.5663 15.8926 22.937 16.3138C23.3078 16.735 23.591 17.2243 23.7704 17.7538C23.9497 18.2832 24.0218 18.8424 23.9822 19.3995C23.9427 19.9565 23.7925 20.5003 23.5402 20.9998C23.2878 21.4994 22.9384 21.9448 22.5119 22.3108C22.0854 22.6768 21.5901 22.9562 21.0544 23.1331C20.5204 23.3095 19.9566 23.3805 19.3949 23.3424H19.3618C18.7803 23.3756 18.1979 23.2907 17.6508 23.0931C17.1022 22.8949 16.6006 22.5876 16.1771 22.19C15.7536 21.7924 15.4172 21.313 15.1889 20.7815C14.9606 20.2502 14.8453 19.6782 14.8501 19.1009M14.8501 19.1009C14.8501 19.1008 14.8501 19.1006 14.8501 19.1004L15.0001 19.1017L14.8501 19.1014C14.8501 19.1013 14.8501 19.1011 14.8501 19.1009ZM38.4061 25.5062V25.3562C36.8256 25.3562 35.2859 25.8404 33.9997 26.7394V26.2559C33.9997 26.0167 33.9035 25.7876 33.7327 25.619C33.562 25.4505 33.3309 25.3562 33.0904 25.3562H27.0152C26.7747 25.3562 26.5436 25.4505 26.3729 25.619C26.2021 25.7876 26.1058 26.0167 26.1058 26.2559V44.2502C26.1058 44.4895 26.2021 44.7186 26.3729 44.8871C26.5436 45.0557 26.7747 45.15 27.0152 45.15H33.0904C33.3309 45.15 33.562 45.0557 33.7327 44.8871C33.9035 44.7186 33.9997 44.4895 33.9997 44.2502V36.0028C33.9997 35.4467 34.2235 34.9129 34.6224 34.5191C35.0214 34.1252 35.5629 33.9036 36.1279 33.9036C36.693 33.9036 37.2345 34.1252 37.6334 34.5191C38.0323 34.9129 38.2561 35.4467 38.2561 36.0028V44.2502C38.2561 44.4895 38.3524 44.7186 38.5231 44.8871C38.6938 45.0557 38.9249 45.15 39.1655 45.15H45.2406C45.4812 45.15 45.7123 45.0557 45.883 44.8871C46.0537 44.7186 46.15 44.4895 46.15 44.2502V33.0038V33.0036C46.1475 30.9755 45.3304 29.0316 43.8785 27.5981C42.4267 26.1646 40.4587 25.3586 38.4063 25.3562L38.4061 25.5062ZM44.3312 33.0038V43.3505H40.0749V36.0028C40.0749 34.9682 39.6586 33.9763 38.9182 33.2453C38.1778 32.5143 37.1741 32.104 36.1279 32.104C35.0817 32.104 34.078 32.5143 33.3377 33.2453C32.5973 33.9763 32.181 34.9682 32.181 36.0028V43.3505H27.9246V27.1557H32.181V28.8096C32.181 28.8096 32.181 28.8096 32.181 28.8096C32.1809 28.9964 32.2396 29.1784 32.3487 29.3305C32.4578 29.4826 32.6118 29.5972 32.7892 29.6588C32.9666 29.7204 33.1589 29.7261 33.3397 29.6751C33.5204 29.6241 33.681 29.5189 33.7991 29.3736L33.7999 29.3726C34.5603 28.421 35.6027 27.7271 36.7821 27.388C37.9614 27.0489 39.2186 27.0817 40.3782 27.4816C41.5378 27.8816 42.5417 28.6288 43.2502 29.6186C43.9587 30.6084 44.3365 31.7916 44.3312 33.0031V33.0038ZM19.416 21.5437L19.4081 21.5429H19.4001H19.3575V21.5425L19.3464 21.5433C19.0014 21.5689 18.6548 21.5232 18.3288 21.4091C18.0028 21.295 17.7045 21.1152 17.4531 20.881C17.2017 20.6469 17.0026 20.3638 16.8684 20.0496C16.7343 19.7355 16.6679 19.3973 16.6736 19.0566C16.6793 18.7159 16.7569 18.38 16.9015 18.0704C17.0461 17.7608 17.2545 17.4843 17.5137 17.2584C17.7728 17.0326 18.0769 16.8625 18.4065 16.7591C18.7362 16.6557 19.0842 16.6213 19.4281 16.6582L19.4429 16.6597L19.4577 16.6584C20.1155 16.5987 20.7701 16.7995 21.2776 17.2162C21.7849 17.6327 22.1034 18.2309 22.1637 18.8787C22.224 19.5265 22.0213 20.1716 21.5995 20.6723C21.1778 21.173 20.5714 21.4882 19.9137 21.548C19.748 21.5628 19.5813 21.5614 19.416 21.5437ZM22.4589 25.3562H16.3838C16.1432 25.3562 15.9121 25.4505 15.7414 25.619C15.5706 25.7876 15.4744 26.0167 15.4744 26.2559V44.2502C15.4744 44.4895 15.5706 44.7186 15.7414 44.8871C15.9121 45.0557 16.1432 45.15 16.3838 45.15H22.4589C22.6995 45.15 22.9306 45.0557 23.1012 44.8871C23.272 44.7186 23.3683 44.4895 23.3683 44.2502V26.2559C23.3683 26.0167 23.272 25.7876 23.1012 25.619C22.9306 25.4505 22.6995 25.3562 22.4589 25.3562ZM21.5495 43.3505H17.2931V27.1557H21.5495V43.3505Z" fill="white" stroke="white" stroke-width="0.3"/>
</svg>
