<svg width="60" height="60" viewBox="0 0 60 60" fill="none" xmlns="http://www.w3.org/2000/svg">
<rect width="60" height="60" rx="30" fill="#0D1117"/>
<path d="M23.3707 44.046H17.0859V23.0967H23.3707V44.046ZM46.4151 44.046H40.1302V32.8549C40.1302 29.9387 39.0912 28.487 37.0318 28.487C35.3999 28.487 34.365 29.2998 33.8454 30.9276V44.046H27.5606C27.5606 44.046 27.6444 25.1916 27.5606 23.0967H32.5214L32.9048 27.2866H33.0347C34.3231 25.1916 36.3824 23.7712 39.2064 23.7712C41.3537 23.7712 43.0904 24.3683 44.4165 25.8683C45.751 27.3704 46.4151 29.3857 46.4151 32.2159V44.046Z" fill="white"/>
<path d="M20.2284 21.0019C22.0217 21.0019 23.4755 19.5949 23.4755 17.8594C23.4755 16.1239 22.0217 14.717 20.2284 14.717C18.435 14.717 16.9812 16.1239 16.9812 17.8594C16.9812 19.5949 18.435 21.0019 20.2284 21.0019Z" fill="white"/>
</svg>
