<svg width="400" height="400" viewBox="0 0 400 400" fill="none" xmlns="http://www.w3.org/2000/svg">
<path fill-rule="evenodd" clip-rule="evenodd" d="M175.318 158.902H210.973V176.662C216.109 166.448 229.28 157.27 249.066 157.27C286.995 157.27 296 177.603 296 214.909V284H257.6V223.405C257.6 202.16 252.464 190.179 239.389 190.179C221.254 190.179 213.718 203.091 213.718 223.395V284H175.318V158.902V158.902ZM109.472 282.368H147.872V157.27H109.472V282.368V282.368ZM153.373 116.48C153.374 119.699 152.736 122.885 151.495 125.855C150.254 128.825 148.435 131.519 146.144 133.779C141.501 138.393 135.217 140.976 128.672 140.96C122.138 140.956 115.869 138.38 111.219 133.789C108.936 131.52 107.124 128.824 105.885 125.854C104.646 122.884 104.006 119.698 104 116.48C104 109.981 106.592 103.76 111.229 99.1712C115.874 94.5743 122.146 91.9971 128.682 92C135.229 92 141.507 94.5824 146.144 99.1712C150.771 103.76 153.373 109.981 153.373 116.48Z" fill="#DD6387"/>
</svg>
