<svg width="60" height="60" viewBox="0 0 60 60" fill="none" xmlns="http://www.w3.org/2000/svg">
<path d="M36.8644 18.8678C36.5127 19.6083 36.3028 20.4082 36.2456 21.226H18.5418C17.8539 21.226 17.194 21.4993 16.7076 21.9858C16.2211 22.4723 15.9478 23.1321 15.9478 23.8201V24.3785L29.6256 32.5852L38.9133 27.0131C39.6968 27.5922 40.5993 27.9898 41.5555 28.1772L30.2321 34.9717C30.0699 35.0689 29.8866 35.1257 29.6978 35.1372C29.509 35.1487 29.3202 35.1146 29.1473 35.0378L29.019 34.9717L15.9478 27.1282V39.3845C15.9478 40.2966 16.6873 41.0352 17.5985 41.0352H41.6526C42.0904 41.0352 42.5103 40.8613 42.8199 40.5518C43.1295 40.2422 43.3034 39.8223 43.3034 39.3845V28.2847C44.1213 28.2272 44.9211 28.017 45.6616 27.665V39.3845C45.6616 40.4477 45.2393 41.4674 44.4874 42.2193C43.7356 42.9711 42.7159 43.3935 41.6526 43.3935H17.5985C16.5353 43.3935 15.5156 42.9711 14.7638 42.2193C14.0119 41.4674 13.5895 40.4477 13.5895 39.3845L13.5886 25.1275C13.5851 25.075 13.5851 25.0224 13.5886 24.97L13.5895 23.8201C13.5895 21.0845 15.8063 18.8678 18.5418 18.8678H36.8644ZM42.8317 16.9812C44.0826 16.9812 45.2823 17.4781 46.1668 18.3626C47.0513 19.2471 47.5482 20.4468 47.5482 21.6977C47.5482 22.9486 47.0513 24.1482 46.1668 25.0327C45.2823 25.9172 44.0826 26.4141 42.8317 26.4141C41.5809 26.4141 40.3812 25.9172 39.4967 25.0327C38.6122 24.1482 38.1153 22.9486 38.1153 21.6977C38.1153 20.4468 38.6122 19.2471 39.4967 18.3626C40.3812 17.4781 41.5809 16.9812 42.8317 16.9812Z" fill="white"/>
<path d="M60 30C60 13.4315 46.5685 0 30 0C13.4315 0 0 13.4315 0 30C0 46.5685 13.4315 60 30 60C46.5685 60 60 46.5685 60 30Z" fill="#0D1117"/>
<path d="M21.0147 14.8583C21.1792 14.8491 21.3442 14.8502 21.5086 14.8616L21.0147 14.8583ZM21.0147 14.8583C20.4843 14.824 19.9523 14.8966 19.4512 15.0717C18.9472 15.2478 18.4852 15.524 18.0938 15.8831C17.7024 16.2422 17.3899 16.6768 17.1759 17.1598C16.962 17.6427 16.8511 18.1638 16.8501 18.6907M21.0147 14.8583L21.5086 14.8616C22.0193 14.8968 22.518 15.0306 22.9762 15.2554C23.4345 15.4803 23.8435 15.7918 24.1797 16.1723C24.5158 16.5529 24.7727 16.995 24.9353 17.4734C25.098 17.9519 25.1633 18.4572 25.1275 18.9606C25.0916 19.464 24.9554 19.9554 24.7266 20.4068C24.4977 20.8582 24.1809 21.2607 23.7942 21.5913C23.4075 21.9219 22.9585 22.1743 22.4729 22.3341C21.989 22.4933 21.4781 22.5575 20.9691 22.5232H20.9401C20.4131 22.5531 19.8854 22.4764 19.3895 22.2979C18.8922 22.119 18.4374 21.8413 18.0534 21.4821C17.6694 21.1229 17.3644 20.6897 17.1573 20.2095C16.9503 19.7293 16.8458 19.2124 16.8501 18.6907M16.8501 18.6907C16.8501 18.6906 16.8501 18.6904 16.8501 18.6902L17.0001 18.6915L16.8501 18.6913C16.8501 18.6911 16.8501 18.6909 16.8501 18.6907ZM38.141 24.3055C36.7198 24.3055 35.3351 24.7366 34.1756 25.5373V25.1303C34.1756 24.9108 34.0869 24.7007 33.9299 24.5463C33.7729 24.3919 33.5606 24.3055 33.3397 24.3055H27.8525C27.6316 24.3055 27.4192 24.3919 27.2623 24.5463C27.1052 24.7007 27.0166 24.9108 27.0166 25.1303V41.3252C27.0166 41.5448 27.1052 41.7548 27.2623 41.9093C27.4192 42.0637 27.6316 42.15 27.8525 42.15H33.3397C33.5606 42.15 33.7729 42.0637 33.9299 41.9093C34.0869 41.7548 34.1756 41.5448 34.1756 41.3252V33.9026C34.1756 33.4062 34.376 32.9298 34.7335 32.578C35.091 32.2263 35.5765 32.0282 36.0833 32.0282C36.59 32.0282 37.0755 32.2263 37.4331 32.578C37.7906 32.9298 37.991 33.4062 37.991 33.9026V41.3252C37.991 41.5448 38.0797 41.7548 38.2367 41.9093C38.3936 42.0637 38.606 42.15 38.8269 42.15H44.3141C44.535 42.15 44.7474 42.0637 44.9043 41.9093C45.0613 41.7548 45.15 41.5448 45.15 41.3252V31.2034V31.2032C45.1478 29.3737 44.408 27.6203 43.0938 26.3274C41.7797 25.0346 39.9986 24.3077 38.1412 24.3055L38.141 24.4547V24.3055ZM33.9909 27.9459L33.9917 27.9449C34.6766 27.0909 35.6156 26.468 36.678 26.1637C37.7405 25.8593 38.8731 25.8887 39.9177 26.2477C40.9623 26.6068 41.8666 27.2774 42.5046 28.1657C43.1427 29.0539 43.4829 30.1156 43.4782 31.2028V31.2034V40.5004H39.6628V33.9026C39.6628 32.9672 39.2851 32.0706 38.6135 31.4099C37.942 30.7493 37.0318 30.3786 36.0833 30.3786C35.1347 30.3786 34.2245 30.7493 33.5531 31.4099C32.8815 32.0706 32.5038 32.9672 32.5038 33.9026V40.5004H28.6884V25.9551H32.5038V27.4286C32.5038 27.4286 32.5038 27.4286 32.5038 27.4287C32.5037 27.6001 32.5578 27.767 32.6582 27.9064C32.7585 28.0458 32.9001 28.1507 33.0631 28.2071C33.226 28.2635 33.4026 28.2687 33.5687 28.222C33.7347 28.1754 33.8823 28.079 33.9909 27.9459ZM20.9901 20.8744L20.9822 20.8736H20.9742H20.9358V20.8732L20.9248 20.874C20.6151 20.8969 20.3039 20.856 20.0113 20.754C19.7186 20.652 19.451 20.4911 19.2254 20.2818C18.9998 20.0725 18.8212 19.8193 18.7009 19.5386C18.5805 19.2579 18.5211 18.9557 18.5262 18.6512C18.5313 18.3467 18.6008 18.0466 18.7305 17.7699C18.8602 17.4932 19.0472 17.246 19.2797 17.0441C19.5123 16.8422 19.7852 16.69 20.0811 16.5976C20.377 16.5051 20.6893 16.4743 20.9981 16.5073L21.0128 16.5088L21.0275 16.5075C21.6181 16.4541 22.2057 16.6338 22.661 17.0063C23.1163 17.3788 23.4019 17.9134 23.456 18.4922C23.5101 19.0711 23.3283 19.6477 22.9499 20.0952C22.5715 20.5429 22.0273 20.8248 21.4368 20.8782C21.2881 20.8915 21.1385 20.8902 20.9901 20.8744ZM23.7371 24.3055H18.2498C18.0289 24.3055 17.8166 24.3919 17.6596 24.5463C17.5026 24.7007 17.4139 24.9108 17.4139 25.1303V41.3252C17.4139 41.5448 17.5026 41.7548 17.6596 41.9093C17.8166 42.0637 18.0289 42.15 18.2498 42.15H23.7371C23.958 42.15 24.1703 42.0637 24.3273 41.9093C24.4843 41.7548 24.573 41.5448 24.573 41.3252V25.1303C24.573 24.9108 24.4843 24.7007 24.3273 24.5463C24.1703 24.3919 23.958 24.3055 23.7371 24.3055ZM22.9012 40.5004H19.0857V25.9551H22.9012V40.5004Z" fill="white" stroke="white" stroke-width="0.3"/>
</svg>
