<svg width="60" height="60" viewBox="0 0 60 60" fill="none" xmlns="http://www.w3.org/2000/svg">
<path d="M36.8634 18.8677C36.5117 19.6082 36.3018 20.4081 36.2446 21.2259H18.5408C17.8529 21.2259 17.193 21.4992 16.7066 21.9857C16.2201 22.4722 15.9468 23.132 15.9468 23.82V24.3784L29.6246 32.5851L38.9123 27.013C39.6958 27.5921 40.5983 27.9897 41.5545 28.1771L30.2311 34.9716C30.0689 35.0688 29.8856 35.1256 29.6968 35.1371C29.508 35.1486 29.3192 35.1145 29.1463 35.0377L29.018 34.9716L15.9468 27.1281V39.3844C15.9468 40.2965 16.6863 41.0351 17.5975 41.0351H41.6516C42.0894 41.0351 42.5093 40.8612 42.8189 40.5517C43.1285 40.2421 43.3024 39.8222 43.3024 39.3844V28.2846C44.1203 28.2271 44.9201 28.0169 45.6606 27.6649V39.3844C45.6606 40.4476 45.2383 41.4673 44.4864 42.2192C43.7346 42.971 42.7149 43.3934 41.6516 43.3934H17.5975C16.5343 43.3934 15.5146 42.971 14.7628 42.2192C14.0109 41.4673 13.5885 40.4476 13.5885 39.3844L13.5876 25.1274C13.5841 25.0749 13.5841 25.0223 13.5876 24.9699L13.5885 23.82C13.5885 21.0844 15.8053 18.8677 18.5408 18.8677H36.8634ZM42.8307 16.9811C44.0816 16.9811 45.2813 17.478 46.1658 18.3625C47.0503 19.247 47.5472 20.4467 47.5472 21.6976C47.5472 22.9485 47.0503 24.1481 46.1658 25.0326C45.2813 25.9171 44.0816 26.414 42.8307 26.414C41.5799 26.414 40.3802 25.9171 39.4957 25.0326C38.6112 24.1481 38.1143 22.9485 38.1143 21.6976C38.1143 20.4467 38.6112 19.247 39.4957 18.3625C40.3802 17.478 41.5799 16.9811 42.8307 16.9811Z" fill="white"/>
<rect width="60" height="60" rx="30" fill="#0D1117"/>
<path d="M36.8634 18.8677C36.5117 19.6082 36.3018 20.4081 36.2446 21.2259H18.5408C17.8529 21.2259 17.193 21.4992 16.7066 21.9857C16.2201 22.4722 15.9468 23.132 15.9468 23.82V24.3784L29.6246 32.5851L38.9123 27.013C39.6958 27.5921 40.5983 27.9897 41.5545 28.1771L30.2311 34.9716C30.0689 35.0688 29.8856 35.1256 29.6968 35.1371C29.508 35.1486 29.3192 35.1145 29.1463 35.0377L29.018 34.9716L15.9468 27.1281V39.3844C15.9468 40.2965 16.6863 41.0351 17.5975 41.0351H41.6516C42.0894 41.0351 42.5093 40.8612 42.8189 40.5517C43.1285 40.2421 43.3024 39.8222 43.3024 39.3844V28.2846C44.1203 28.2271 44.9201 28.0169 45.6606 27.6649V39.3844C45.6606 40.4476 45.2383 41.4673 44.4864 42.2192C43.7346 42.971 42.7149 43.3934 41.6516 43.3934H17.5975C16.5343 43.3934 15.5146 42.971 14.7628 42.2192C14.0109 41.4673 13.5885 40.4476 13.5885 39.3844L13.5876 25.1274C13.5841 25.0749 13.5841 25.0223 13.5876 24.9699L13.5885 23.82C13.5885 21.0844 15.8053 18.8677 18.5408 18.8677H36.8634ZM42.8307 16.9811C44.0816 16.9811 45.2813 17.478 46.1658 18.3625C47.0503 19.247 47.5472 20.4467 47.5472 21.6976C47.5472 22.9485 47.0503 24.1481 46.1658 25.0326C45.2813 25.9171 44.0816 26.414 42.8307 26.414C41.5799 26.414 40.3802 25.9171 39.4957 25.0326C38.6112 24.1481 38.1143 22.9485 38.1143 21.6976C38.1143 20.4467 38.6112 19.247 39.4957 18.3625C40.3802 17.478 41.5799 16.9811 42.8307 16.9811Z" fill="white"/>
</svg>
