<svg width="56" height="56" viewBox="0 0 56 56" fill="none" xmlns="http://www.w3.org/2000/svg">
<path d="M0 7C0 3.13401 3.13401 0 7 0H49C52.866 0 56 3.13401 56 7V49C56 52.866 52.866 56 49 56H7C3.13401 56 0 52.866 0 49V7Z" fill="#0D1117"/>
<path d="M41.0679 45H9.24328C6.88826 45 5 42.975 5 40.5V13.5C5 11.0025 6.88826 9 9.24328 9H21.9731L26.2164 13.5H41.0679C43.3953 13.5 45.3112 15.5317 45.3112 18H9.24328V40.5L13.7836 22.5H50L45.1627 41.625C44.6747 43.5825 43.0198 45 41.0679 45Z" fill="#B1DB7B"/>
<path d="M39 21C38.67 21 38.3278 21.0862 38.0467 21.2463L28.9533 26.5419C28.3667 26.8867 28 27.5271 28 28.2167V38.7833C28 39.4729 28.3667 40.1133 28.9533 40.4581L31.3367 41.8374C32.4978 42.4039 32.8889 42.4163 33.4267 42.4163C35.1378 42.4163 36.1278 41.3695 36.1278 39.5468V29.1158C36.1278 28.968 36.0056 28.8448 35.8589 28.8448H34.7222C34.5633 28.8448 34.4411 28.968 34.4411 29.1158V39.5468C34.4411 40.3596 33.61 41.1601 32.2778 40.4828L29.7722 39.0419C29.6867 38.9803 29.6378 38.8818 29.6378 38.7833V28.2167C29.6378 28.1059 29.6867 28.0074 29.7722 27.9581L38.8656 22.6749C38.9389 22.6256 39.0611 22.6256 39.1344 22.6749L48.2278 27.9581C48.3133 28.0074 48.3622 28.1059 48.3622 28.2167V38.7833C48.3622 38.8818 48.3133 38.9803 48.2278 39.0419L39.1344 44.3251C39.0611 44.3744 38.9389 44.3744 38.8533 44.3251L36.5556 42.9212C36.4578 42.8842 36.36 42.8719 36.2989 42.9089C35.6511 43.2783 35.5289 43.3522 34.93 43.5369C34.7833 43.5862 34.5511 43.6724 35.0156 43.931L38.0467 45.7414C38.34 45.9138 38.6578 46 39 46C39.3422 46 39.66 45.9138 39.9533 45.7414L49.0467 40.4581C49.6333 40.1133 50 39.4729 50 38.7833V28.2167C50 27.5271 49.6333 26.8867 49.0467 26.5419L39.9533 21.2463C39.6722 21.0862 39.3422 21 39 21ZM41.4444 28.5739C38.8533 28.5739 37.3011 29.67 37.3011 31.5172C37.3011 33.5 38.8411 34.0788 41.3344 34.3251C44.3044 34.6207 44.5367 35.064 44.5367 35.6552C44.5367 36.6773 43.7178 37.1084 41.8111 37.1084C39.3911 37.1084 38.8778 36.5049 38.6944 35.298C38.67 35.1749 38.56 35.0764 38.4256 35.0764H37.2522C37.1056 35.0764 36.9956 35.1872 36.9956 35.3473C36.9956 36.8744 37.8267 38.7217 41.8111 38.7217C44.6833 38.7217 46.3333 37.5764 46.3333 35.5813C46.3333 33.5985 45.0133 33.0813 42.2144 32.6995C39.3911 32.3301 39.11 32.133 39.11 31.468C39.11 30.9138 39.3544 30.1749 41.4444 30.1749C43.2778 30.1749 43.9989 30.5813 44.28 31.8498C44.3044 31.9729 44.4144 32.0591 44.5367 32.0591H45.7222C45.7833 32.0591 45.8567 32.0345 45.9056 31.9729C45.9544 31.9236 45.9911 31.8498 45.9667 31.7759C45.7956 29.5837 44.3533 28.5739 41.4444 28.5739Z" fill="white" fill-opacity="0.9"/>
</svg>
