<svg width="56" height="56" viewBox="0 0 56 56" fill="none" xmlns="http://www.w3.org/2000/svg">
<path d="M0 7C0 3.13401 3.13401 0 7 0H49C52.866 0 56 3.13401 56 7V49C56 52.866 52.866 56 49 56H7C3.13401 56 0 52.866 0 49V7Z" fill="#0D1117"/>
<path d="M41.0679 45H9.24328C6.88826 45 5 42.975 5 40.5V13.5C5 11.0025 6.88826 9 9.24328 9H21.9731L26.2164 13.5H41.0679C43.3953 13.5 45.3112 15.5317 45.3112 18H9.24328V40.5L13.7836 22.5H50L45.1627 41.625C44.6747 43.5825 43.0198 45 41.0679 45Z" fill="#0288D1"/>
<path d="M0 7C0 3.13401 3.13401 0 7 0H49C52.866 0 56 3.13401 56 7V49C56 52.866 52.866 56 49 56H7C3.13401 56 0 52.866 0 49V7Z" fill="#0D1117"/>
<path d="M41.0679 45H9.24328C6.88826 45 5 42.975 5 40.5V13.5C5 11.0025 6.88826 9 9.24328 9H21.9731L26.2164 13.5H41.0679C43.3953 13.5 45.3112 15.5317 45.3112 18H9.24328V40.5L13.7836 22.5H50L45.1627 41.625C44.6747 43.5825 43.0198 45 41.0679 45Z" fill="#00BCD4"/>
<path d="M41.0002 32.2399C42.2458 32.2399 43.2617 33.2444 43.2617 34.4999C43.2617 35.6957 42.2459 36.712 41.0002 36.712C39.7547 36.712 38.7388 35.6956 38.7388 34.4999C38.7388 33.2443 39.7546 32.2399 41.0002 32.2399V32.2399ZM35.4011 44.0664C36.163 44.5208 37.8318 43.8272 39.7546 42.0335C39.1258 41.328 38.509 40.5627 37.9286 39.7614C36.937 39.6658 35.9575 39.5223 35.0262 39.3309C34.4095 41.8899 34.6393 43.6478 35.4011 44.0664L35.4011 44.0664ZM36.2597 37.2024L35.909 36.5925C35.776 36.9393 35.643 37.2861 35.5584 37.6209C35.8849 37.6927 36.2477 37.7525 36.6225 37.8123C36.5016 37.609 36.3807 37.4057 36.2597 37.2024V37.2024ZM44.1685 36.2936L45.148 34.4999L44.1685 32.7063C43.8057 32.0725 43.4188 31.5105 43.0681 30.9484C42.415 30.9126 41.7257 30.9126 41.0002 30.9126C40.2746 30.9126 39.5853 30.9126 38.9323 30.9484C38.5816 31.5105 38.1946 32.0725 37.8318 32.7063L36.8523 34.4999L37.8318 36.2936C38.1946 36.9274 38.5816 37.4894 38.9323 38.0515C39.5853 38.0873 40.2746 38.0873 41.0002 38.0873C41.7257 38.0873 42.415 38.0873 43.0681 38.0515C43.4187 37.4894 43.8057 36.9274 44.1685 36.2936ZM41.0001 28.2578C40.7704 28.5209 40.5285 28.7959 40.2866 29.1188H41.0001H41.7136C41.4717 28.7959 41.2299 28.5209 41.0001 28.2578ZM41.0001 40.7421C41.2299 40.479 41.4717 40.204 41.7136 39.8811H41.0001H40.2866C40.5285 40.204 40.7704 40.479 41.0001 40.7421ZM46.587 24.9336C45.8373 24.4792 44.1684 25.1728 42.2456 26.9665C42.8745 27.672 43.4912 28.4373 44.0716 29.2386C45.0632 29.3342 46.0427 29.4777 46.9739 29.6691C47.5907 27.1101 47.3609 25.3522 46.587 24.9336L46.587 24.9336ZM45.7405 31.7976L46.0911 32.4075C46.2242 32.0607 46.3572 31.7139 46.4418 31.3791C46.1153 31.3073 45.7525 31.2476 45.3777 31.1878C45.4986 31.3911 45.6195 31.5943 45.7405 31.7976V31.7976ZM47.4939 23.3672C49.2717 24.3716 49.465 27.0144 48.7153 30.0995C51.7869 30.9964 54 32.4792 54 34.5C54 36.521 51.7869 38.0037 48.7153 38.9005C49.4651 41.9856 49.2716 44.6284 47.4939 45.6328C45.7284 46.6373 43.3218 45.4893 41.0001 43.301C38.6782 45.4893 36.2717 46.6373 34.494 45.6328C32.7285 44.6284 32.5349 41.9856 33.2847 38.9005C30.2131 38.0036 28 36.5208 28 34.5C28 32.4791 30.2131 30.9963 33.2847 30.0995C32.5349 27.0144 32.7284 24.3716 34.494 23.3672C36.2717 22.3627 38.6782 23.5106 41.0001 25.699C43.322 23.5107 45.7284 22.3627 47.4939 23.3672V23.3672ZM47.1432 34.5002C47.5544 35.397 47.9172 36.2938 48.2195 37.2027C50.759 36.4494 52.186 35.3732 52.186 34.5002C52.186 33.6272 50.7591 32.5511 48.2195 31.7976C47.9172 32.7064 47.5544 33.6034 47.1432 34.5002ZM34.8567 34.5002C34.4456 33.6033 34.0828 32.7065 33.7804 31.7976C31.2409 32.551 29.8139 33.6272 29.8139 34.5002C29.8139 35.3731 31.2409 36.4493 33.7804 37.2027C34.0828 36.2939 34.4455 35.397 34.8567 34.5002ZM45.7403 37.2027C45.6194 37.406 45.4985 37.6093 45.3776 37.8126C45.7525 37.7528 46.1152 37.693 46.4417 37.6212C46.3571 37.2864 46.2241 36.9396 46.091 36.5928L45.7403 37.2027V37.2027ZM42.2455 42.0338C44.1682 43.8274 45.8371 44.5211 46.5869 44.0667C47.3608 43.6481 47.5906 41.8903 46.9738 39.3313C46.0427 39.5226 45.0632 39.6661 44.0715 39.7618C43.491 40.563 42.8743 41.3283 42.2455 42.0339L42.2455 42.0338ZM36.2595 31.7977C36.3804 31.5944 36.5013 31.3911 36.6222 31.1878C36.2474 31.2476 35.8846 31.3074 35.5581 31.3791C35.6427 31.714 35.7757 32.0607 35.9088 32.4075L36.2595 31.7977V31.7977ZM39.7544 26.9666C37.8316 25.1729 36.1627 24.4792 35.4009 24.9337C34.639 25.3522 34.4093 27.1101 35.026 29.6691C35.9572 29.4778 36.9367 29.3343 37.9284 29.2386C38.5088 28.4374 39.1256 27.6721 39.7543 26.9665L39.7544 26.9666Z" fill="#B2EBF2"/>
</svg>
