<svg width="56" height="56" viewBox="0 0 56 56" fill="none" xmlns="http://www.w3.org/2000/svg">
<path d="M0 7C0 3.13401 3.13401 0 7 0H49C52.866 0 56 3.13401 56 7V49C56 52.866 52.866 56 49 56H7C3.13401 56 0 52.866 0 49V7Z" fill="#0D1117"/>
<path d="M41.0679 45H9.24328C6.88826 45 5 42.975 5 40.5V13.5C5 11.0025 6.88826 9 9.24328 9H21.9731L26.2164 13.5H41.0679C43.3953 13.5 45.3112 15.5317 45.3112 18H9.24328V40.5L13.7836 22.5H50L45.1627 41.625C44.6747 43.5825 43.0198 45 41.0679 45Z" fill="#0288D1"/>
<path fill-rule="evenodd" clip-rule="evenodd" d="M45.7118 28.0001C45.4714 27.9993 45.2506 28.0055 45.0857 28.0212C43.796 28.1343 42.5914 28.7026 41.767 29.5867C41.3539 30.0297 40.9798 30.6648 40.797 31.2334C40.5955 31.86 40.597 31.8479 40.598 32.8296C40.599 34.0836 40.6622 34.3942 41.0852 35.2281C41.5104 36.0667 42.1583 36.7518 43.0932 37.3511C43.5029 37.6138 44.5521 38.1415 45.4088 38.5159C47.2737 39.3308 47.8637 39.7069 48.1375 40.2551L48.2505 40.4814V40.9555C48.2505 41.4129 48.2487 41.4364 48.1565 41.625C47.9461 42.0614 47.4495 42.4186 46.8136 42.5913C46.5732 42.6564 46.4631 42.6657 45.9257 42.6658C45.3997 42.6658 45.272 42.655 45.0309 42.5944C44.61 42.4871 44.2554 42.3384 43.9781 42.1532C43.6387 41.9264 42.9713 41.2467 42.6998 40.8512C42.5799 40.6766 42.4596 40.5336 42.4326 40.5336C42.3879 40.5336 40.0868 41.8607 39.6851 42.1181C39.5497 42.205 39.5154 42.2444 39.5154 42.314C39.5154 42.4582 40.0531 43.278 40.4743 43.776C41.3323 44.7906 43.0531 45.6853 44.5774 45.9092C45.1799 45.9977 46.1808 46.0263 46.88 45.9744C47.3382 45.9405 47.8013 45.8527 48.299 45.7055C50.0993 45.1728 51.3277 44.041 51.7828 42.4955C51.9684 41.8649 52.0435 41.0894 51.9822 40.4352C51.8564 39.0928 51.4474 38.1438 50.6401 37.3219C49.8903 36.5586 48.861 35.9436 46.8295 35.045C45.0682 34.2659 44.6085 33.9633 44.3547 33.4161C44.1355 32.9436 44.1773 32.2934 44.453 31.8894C44.7755 31.4164 45.4341 31.1828 46.1684 31.2809C46.8512 31.3719 47.2929 31.6449 47.7255 32.243C47.9502 32.5536 48.1061 32.7153 48.1809 32.7153C48.2547 32.7153 48.5723 32.5176 49.5584 31.8572C50.5621 31.185 50.8778 30.9569 50.8994 30.8882C50.9329 30.7816 50.7757 30.5322 50.3155 29.9627C49.3914 28.8194 48.3051 28.2124 46.9104 28.0602C46.5679 28.0227 46.1124 28.0013 45.7118 28.0001ZM34.6158 28.194C33.7877 28.1935 32.8419 28.194 31.7909 28.1951C26.3409 28.2005 25.0759 28.2095 25.0418 28.245C25.0086 28.2785 25 28.6155 25 29.8738V31.4603L27.4785 31.4693L29.9569 31.4784L29.9574 38.5553C29.9576 42.4477 29.9664 45.6652 29.9784 45.7055L29.9971 45.779H31.7983C33.4109 45.779 33.6015 45.7754 33.6189 45.7276C33.6296 45.6992 33.6375 42.4817 33.6375 38.5774V31.4787L36.1159 31.4697L38.5944 31.4607V29.8551C38.5944 28.4634 38.589 28.2454 38.546 28.2185C38.5232 28.2041 37.0998 28.1953 34.6158 28.194Z" fill="#90CAF9"/>
</svg>
