<svg width="60" height="60" viewBox="0 0 60 60" fill="none" xmlns="http://www.w3.org/2000/svg">
<rect width="60" height="60" rx="30" fill="#0D1117"/>
<path d="M23.1097 46.5489C19.601 46.5494 16.1497 45.6587 13.0794 43.9604C12.8449 43.83 12.6599 43.6258 12.5533 43.3795C12.4466 43.1333 12.4242 42.8587 12.4896 42.5984C12.5549 42.3381 12.7043 42.1067 12.9146 41.94C13.125 41.7733 13.3844 41.6807 13.6527 41.6765C16.6318 41.6349 19.5549 40.8618 22.165 39.4252C19.0631 36.8792 16.7668 33.4876 15.5548 29.662C14.3428 25.8363 14.2672 21.7412 15.3372 17.8734C15.3999 17.6475 15.5263 17.4445 15.7015 17.2888C15.8767 17.133 16.0931 17.0311 16.3248 16.9953C16.5564 16.9596 16.7935 16.9914 17.0075 17.0871C17.2215 17.1828 17.4033 17.3382 17.5311 17.5346C18.8488 19.5695 20.5593 21.3208 22.5625 22.6861C24.5657 24.0513 26.8212 25.003 29.1969 25.4853C29.2381 23.9531 29.7601 22.4727 30.6891 21.2536C31.6181 20.0344 32.907 19.1383 34.3733 18.6921C35.8397 18.2459 37.4092 18.2722 38.8598 18.7673C40.3104 19.2623 41.5686 20.2011 42.4562 21.4506C44.0284 21.3451 45.5804 21.0374 47.074 20.5352C47.317 20.4535 47.5795 20.4507 47.8243 20.527C48.069 20.6033 48.2834 20.7549 48.4369 20.9602C48.5904 21.1655 48.6752 21.4141 48.6791 21.6704C48.6831 21.9267 48.6061 22.1777 48.4591 22.3877C47.1678 24.2369 45.5821 25.8619 43.7651 27.1982C43.4225 32.4433 41.0973 37.3617 37.2614 40.9553C33.4254 44.549 28.366 46.5488 23.1097 46.5489ZM18.4002 43.4977C19.9367 43.9064 21.5198 44.1135 23.1097 44.1138C27.84 44.1137 32.3857 42.2784 35.79 38.9942C39.1943 35.7101 41.1917 31.2332 41.3616 26.506C41.3683 26.3162 41.4193 26.1307 41.5105 25.9642C41.6016 25.7977 41.7305 25.6548 41.8867 25.547C42.6792 24.9998 43.4268 24.3903 44.1224 23.7243C43.3675 23.8305 42.6072 23.895 41.8451 23.9176C41.6189 23.9243 41.3952 23.8678 41.1993 23.7544C41.0033 23.641 40.8429 23.4753 40.7359 23.2758C40.1628 22.2693 39.2498 21.4999 38.1607 21.1056C37.0716 20.7113 35.8777 20.7179 34.793 21.1241C33.7084 21.5304 32.8039 22.3097 32.2418 23.3225C31.6797 24.3352 31.4968 25.515 31.7258 26.6504C31.7716 26.8434 31.7696 27.0446 31.72 27.2366C31.6704 27.4286 31.5747 27.6057 31.4411 27.7523C31.3076 27.8989 31.1402 28.0107 30.9537 28.078C30.7671 28.1452 30.5669 28.1659 30.3705 28.1383C25.2431 27.5288 20.5313 25.0167 17.1675 21.0992C17.0705 21.8674 17.0218 22.641 17.0219 23.4153C17.0219 26.3934 17.75 29.3264 19.1428 31.9587C20.5356 34.5911 22.5509 36.843 25.0131 38.5183C25.177 38.63 25.3111 38.7801 25.4038 38.9554C25.4965 39.1308 25.545 39.3261 25.545 39.5245C25.545 39.7228 25.4965 39.9182 25.4038 40.0935C25.3111 40.2689 25.177 40.4189 25.0131 40.5306C23.0016 41.903 20.7626 42.9077 18.4002 43.4978V43.4977Z" fill="white"/>
</svg>
